<svg width="24" height="24" viewBox="0 0 24 24" fill="none" xmlns="http://www.w3.org/2000/svg">
<g clip-path="url(#clip0_2067_2518)">
<path d="M17.0999 9.22531C17.3279 8.99431 17.3279 8.61931 17.0999 8.38531C16.8719 8.15131 16.5029 8.15431 16.2749 8.38531L10.4624 14.2803L7.76238 11.5428C7.70861 11.4879 7.64443 11.4443 7.5736 11.4146C7.50277 11.3848 7.42671 11.3695 7.34988 11.3695C7.27305 11.3695 7.197 11.3848 7.12616 11.4146C7.05533 11.4443 6.99115 11.4879 6.93738 11.5428C6.82745 11.655 6.76587 11.8058 6.76587 11.9628C6.76587 12.1199 6.82745 12.2707 6.93738 12.3828L10.0499 15.5403C10.1037 15.5952 10.1678 15.6388 10.2387 15.6686C10.3095 15.6983 10.3856 15.7136 10.4624 15.7136C10.5392 15.7136 10.6153 15.6983 10.6861 15.6686C10.7569 15.6388 10.8211 15.5952 10.8749 15.5403L17.0999 9.22531Z" fill="black"/>
<path fill-rule="evenodd" clip-rule="evenodd" d="M24 12C24 18.63 18.63 24 12 24C5.37 24 0 18.63 0 12C0 5.37 5.37 0 12 0C18.63 0 24 5.37 24 12ZM23.25 12C23.25 18.21 18.21 23.25 12 23.25C5.79 23.25 0.75 18.21 0.75 12C0.75 5.79 5.79 0.75 12 0.75C18.21 0.75 23.25 5.79 23.25 12Z" fill="black"/>
</g>
<defs>
<clipPath id="clip0_2067_2518">
<rect width="24" height="24" fill="white"/>
</clipPath>
</defs>
</svg>
