<svg width="24" height="24" viewBox="0 0 24 24" fill="none" xmlns="http://www.w3.org/2000/svg">
<path d="M22.35 8.86532L20.67 7.18532L21.57 6.25532L17.73 2.41532L16.8 3.31532L15.09 1.60532L15.99 0.675319C16.45 0.215319 17.02 -0.00968085 17.7 0.000319149C18.38 0.0103192 18.95 0.245319 19.41 0.705319L23.28 4.57532C23.74 5.03532 23.97 5.60032 23.97 6.27032C23.97 6.94032 23.74 7.50532 23.28 7.96532L22.35 8.86532ZM7.95 23.2953C7.49 23.7553 6.925 23.9853 6.255 23.9853C5.585 23.9853 5.02 23.7553 4.56 23.2953L0.69 19.4253C0.23 18.9653 0 18.4003 0 17.7303C0 17.0603 0.23 16.4953 0.69 16.0353L1.59 15.1353L3.3 16.8453L2.37 17.7453L6.24 21.6153L7.14 20.6853L8.85 22.3953L7.95 23.2953ZM19.86 13.2153L21.57 11.5053L12.48 2.41532L10.77 4.12532L19.86 13.2153ZM11.46 21.6153L13.17 19.8753L4.11 10.8153L2.37 12.5253L11.46 21.6153ZM11.28 14.5953L14.58 11.3253L12.66 9.40532L9.39 12.7053L11.28 14.5953ZM13.17 23.2953C12.71 23.7553 12.14 23.9853 11.46 23.9853C10.78 23.9853 10.21 23.7553 9.75 23.2953L0.69 14.2353C0.23 13.7753 0 13.2053 0 12.5253C0 11.8453 0.23 11.2753 0.69 10.8153L2.4 9.10532C2.86 8.64532 3.425 8.41532 4.095 8.41532C4.765 8.41532 5.33 8.64532 5.79 9.10532L7.68 10.9953L10.98 7.69532L9.09 5.83532C8.63 5.37532 8.4 4.80532 8.4 4.12532C8.4 3.44532 8.63 2.87532 9.09 2.41532L10.8 0.705319C11.26 0.245319 11.825 0.0153191 12.495 0.0153191C13.165 0.0153191 13.73 0.245319 14.19 0.705319L23.28 9.79532C23.74 10.2553 23.97 10.8203 23.97 11.4903C23.97 12.1603 23.74 12.7253 23.28 13.1853L21.57 14.8953C21.11 15.3553 20.54 15.5853 19.86 15.5853C19.18 15.5853 18.61 15.3553 18.15 14.8953L16.29 13.0053L12.99 16.3053L14.88 18.1953C15.34 18.6553 15.57 19.2203 15.57 19.8903C15.57 20.5603 15.34 21.1253 14.88 21.5853L13.17 23.2953Z" fill="#FFC00F"/>
</svg>
