<svg width="22" height="26" viewBox="0 0 22 26" fill="none" xmlns="http://www.w3.org/2000/svg">
<path d="M8.4 25.2L7.8 14.4L3.99 12.21L3.57 13.77L6 18L3.93 19.2L0.96 14.1L2.4 8.94L9.3 4.98L6 1.68L7.68 0L13.2 5.49L8.88 7.98L10.32 9.24L20.16 1.2L21.6 2.88L11.4 13.2L10.8 25.2H8.4ZM2.4 7.2C1.74 7.2 1.175 6.965 0.705 6.495C0.235 6.025 0 5.46 0 4.8C0 4.14 0.235 3.575 0.705 3.105C1.175 2.635 1.74 2.4 2.4 2.4C3.06 2.4 3.625 2.635 4.095 3.105C4.565 3.575 4.8 4.14 4.8 4.8C4.8 5.46 4.565 6.025 4.095 6.495C3.625 6.965 3.06 7.2 2.4 7.2Z" fill="#FFC00F"/>
</svg>
