<svg width="33" height="33" viewBox="0 0 33 33" fill="none" xmlns="http://www.w3.org/2000/svg">
<path d="M30.0737 1.24609H2.92863C1.99885 1.24609 1.24512 1.99983 1.24512 2.92961V30.0747C1.24512 31.0045 1.99885 31.7582 2.92863 31.7582H30.0737C31.0035 31.7582 31.7572 31.0045 31.7572 30.0747V2.92961C31.7572 1.99983 31.0035 1.24609 30.0737 1.24609Z" fill="#3D5A98"/>
<path d="M22.2955 31.7544V19.9389H26.2606L26.8536 15.3343H22.2955V12.3953C22.2955 11.0624 22.6667 10.1523 24.5771 10.1523H27.016V6.0273C25.835 5.90444 24.6481 5.84592 23.4608 5.85199C19.9494 5.85199 17.5311 7.99183 17.5311 11.9389V15.3343H13.5659V19.9389H17.5311V31.7544H22.2955Z" fill="white"/>
</svg>
