<svg width="24" height="26" viewBox="0 0 24 26" fill="none" xmlns="http://www.w3.org/2000/svg">
<path d="M0 25.2V15.6L4.8 13.47V9.6L10.8 6.6V4.8H8.4V2.4H10.8V0H13.2V2.4H15.6V4.8H13.2V6.6L19.2 9.6V13.47L24 15.6V25.2H13.2V20.4C13.2 20.06 13.085 19.775 12.855 19.545C12.625 19.315 12.34 19.2 12 19.2C11.66 19.2 11.375 19.315 11.145 19.545C10.915 19.775 10.8 20.06 10.8 20.4V25.2H0ZM2.4 22.8H8.4V20.34C8.4 19.32 8.75 18.455 9.45 17.745C10.15 17.035 11 16.68 12 16.68C13 16.68 13.85 17.035 14.55 17.745C15.25 18.455 15.6 19.32 15.6 20.34V22.8H21.6V17.04L16.8 14.88V10.86L12 8.4L7.2 10.86V14.88L2.4 17.04V22.8ZM12 15C12.5 15 12.925 14.825 13.275 14.475C13.625 14.125 13.8 13.7 13.8 13.2C13.8 12.7 13.625 12.275 13.275 11.925C12.925 11.575 12.5 11.4 12 11.4C11.5 11.4 11.075 11.575 10.725 11.925C10.375 12.275 10.2 12.7 10.2 13.2C10.2 13.7 10.375 14.125 10.725 14.475C11.075 14.825 11.5 15 12 15Z" fill="#FFC00F"/>
</svg>
