<svg width="50" height="50" viewBox="0 0 42 42" fill="none" xmlns="http://www.w3.org/2000/svg">
<path d="M20.5946 28.8325L28.8325 20.5946L20.5946 12.3568L17.7114 15.24L21.0065 18.5351H12.3568V22.6541H21.0065L17.7114 25.9492L20.5946 28.8325ZM20.5946 41.1892C17.7457 41.1892 15.0684 40.6486 12.5627 39.5674C10.057 38.4862 7.87744 37.0188 6.02392 35.1653C4.17041 33.3118 2.70304 31.1322 1.62183 28.6265C0.540609 26.1208 0 23.4435 0 20.5946C0 17.7457 0.540609 15.0684 1.62183 12.5627C2.70304 10.057 4.17041 7.87744 6.02392 6.02392C7.87744 4.17041 10.057 2.70304 12.5627 1.62183C15.0684 0.540609 17.7457 0 20.5946 0C23.4435 0 26.1208 0.540609 28.6265 1.62183C31.1322 2.70304 33.3118 4.17041 35.1653 6.02392C37.0188 7.87744 38.4862 10.057 39.5674 12.5627C40.6486 15.0684 41.1892 17.7457 41.1892 20.5946C41.1892 23.4435 40.6486 26.1208 39.5674 28.6265C38.4862 31.1322 37.0188 33.3118 35.1653 35.1653C33.3118 37.0188 31.1322 38.4862 28.6265 39.5674C26.1208 40.6486 23.4435 41.1892 20.5946 41.1892ZM20.5946 37.0703C25.1941 37.0703 29.0899 35.4742 32.282 32.282C35.4742 29.0899 37.0703 25.1941 37.0703 20.5946C37.0703 15.9951 35.4742 12.0993 32.282 8.90717C29.0899 5.715 25.1941 4.11892 20.5946 4.11892C15.9951 4.11892 12.0993 5.715 8.90717 8.90717C5.715 12.0993 4.11892 15.9951 4.11892 20.5946C4.11892 25.1941 5.715 29.0899 8.90717 32.282C12.0993 35.4742 15.9951 37.0703 20.5946 37.0703Z" fill="#F1B100"/>
</svg>
