<svg width="50" height="50" viewBox="0 0 42 42" fill="none" xmlns="http://www.w3.org/2000/svg">
<path d="M20.5948 28.8325L12.357 20.5946L20.5948 12.3568L23.4781 15.24L20.183 18.5351H28.8327V22.6541H20.183L23.4781 25.9492L20.5948 28.8325ZM20.5948 41.1892C23.4438 41.1892 26.1211 40.6486 28.6267 39.5674C31.1324 38.4862 33.312 37.0188 35.1655 35.1653C37.019 33.3118 38.4864 31.1322 39.5676 28.6265C40.6488 26.1208 41.1895 23.4435 41.1895 20.5946C41.1895 17.7457 40.6488 15.0684 39.5676 12.5627C38.4864 10.057 37.019 7.87744 35.1655 6.02392C33.312 4.17041 31.1324 2.70304 28.6267 1.62183C26.1211 0.540609 23.4438 0 20.5948 0C17.7459 0 15.0686 0.540609 12.563 1.62183C10.0573 2.70304 7.87768 4.17041 6.02416 6.02392C4.17065 7.87744 2.70328 10.057 1.62207 12.5627C0.54085 15.0684 0.000240326 17.7457 0.000240326 20.5946C0.000240326 23.4435 0.54085 26.1208 1.62207 28.6265C2.70328 31.1322 4.17065 33.3118 6.02416 35.1653C7.87768 37.0188 10.0573 38.4862 12.563 39.5674C15.0686 40.6486 17.7459 41.1892 20.5948 41.1892ZM20.5948 37.0703C15.9954 37.0703 12.0996 35.4742 8.90741 32.282C5.71525 29.0899 4.11916 25.1941 4.11916 20.5946C4.11916 15.9951 5.71525 12.0993 8.90741 8.90717C12.0996 5.715 15.9954 4.11892 20.5948 4.11892C25.1943 4.11892 29.0901 5.715 32.2823 8.90717C35.4744 12.0993 37.0705 15.9951 37.0705 20.5946C37.0705 25.1941 35.4744 29.0899 32.2823 32.282C29.0901 35.4742 25.1943 37.0703 20.5948 37.0703Z" fill="#F1B100"/>
</svg>
