<svg width="18" height="24" viewBox="0 0 18 24" fill="none" xmlns="http://www.w3.org/2000/svg">
<path d="M8.7 24C8.18 24 7.71 23.875 7.29 23.625C6.87 23.375 6.54 23.04 6.3 22.62C5.64 22.62 5.075 22.385 4.605 21.915C4.135 21.445 3.9 20.88 3.9 20.22V15.96C2.72 15.18 1.775 14.15 1.065 12.87C0.355 11.59 0 10.2 0 8.7C0 6.28 0.845 4.225 2.535 2.535C4.225 0.845 6.28 0 8.7 0C11.12 0 13.175 0.845 14.865 2.535C16.555 4.225 17.4 6.28 17.4 8.7C17.4 10.24 17.045 11.64 16.335 12.9C15.625 14.16 14.68 15.18 13.5 15.96V20.22C13.5 20.88 13.265 21.445 12.795 21.915C12.325 22.385 11.76 22.62 11.1 22.62C10.86 23.04 10.53 23.375 10.11 23.625C9.69 23.875 9.22 24 8.7 24ZM6.3 20.22H11.1V19.14H6.3V20.22ZM6.3 17.94H11.1V16.8H6.3V17.94ZM6.06 14.4H7.8V11.16L5.16 8.52L6.42 7.26L8.7 9.54L10.98 7.26L12.24 8.52L9.6 11.16V14.4H11.34C12.42 13.88 13.3 13.115 13.98 12.105C14.66 11.095 15 9.96 15 8.7C15 6.94 14.39 5.45 13.17 4.23C11.95 3.01 10.46 2.4 8.7 2.4C6.94 2.4 5.45 3.01 4.23 4.23C3.01 5.45 2.4 6.94 2.4 8.7C2.4 9.96 2.74 11.095 3.42 12.105C4.1 13.115 4.98 13.88 6.06 14.4Z" fill="#FFC00F"/>
</svg>
