<svg width="27" height="28" viewBox="0 0 27 28" fill="none" xmlns="http://www.w3.org/2000/svg">
<path d="M3.96 20.4V10.23H5.76V20.4H3.96ZM11.22 20.4V10.23H13.02V20.4H11.22ZM0 8.43V6.84L12 0L24 6.84V8.43H0ZM4.02 6.63H19.98L12 2.07L4.02 6.63ZM0 24V22.2H15C15.04 22.48 15.075 22.765 15.105 23.055C15.135 23.345 15.21 23.66 15.33 24H0ZM18.24 15.27V10.23H20.04V14.37L18.24 15.27ZM21.6 27.63C20.22 27.29 19.075 26.495 18.165 25.245C17.255 23.995 16.8 22.61 16.8 21.09V18.03L21.6 15.63L26.4 18.03V21.09C26.4 22.61 25.945 23.995 25.035 25.245C24.125 26.495 22.98 27.29 21.6 27.63ZM20.97 24.03L25.23 19.77L24.39 18.93L20.97 22.35L19.2 20.58L18.36 21.42L20.97 24.03Z" fill="#FFC00F"/>
</svg>
