<svg width="33" height="33" viewBox="0 0 33 33" fill="none" xmlns="http://www.w3.org/2000/svg">
<g clip-path="url(#clip0_2049_2512)">
<path d="M29.9062 0.773557H3.09375C2.48539 0.767365 1.89943 1.00276 1.46442 1.4281C1.02942 1.85343 0.780917 2.43396 0.773438 3.04231V29.9631C0.78227 30.5705 1.03137 31.1497 1.46622 31.574C1.90108 31.9982 2.48627 32.2329 3.09375 32.2267H29.9062C30.5146 32.2315 31.1002 31.9953 31.535 31.5697C31.9698 31.1441 32.2184 30.5637 32.2266 29.9554V3.03457C32.2157 2.42801 31.9659 1.85025 31.5314 1.42687C31.0969 1.00349 30.5129 0.768704 29.9062 0.773557Z" fill="#0076B2"/>
<path d="M5.42936 12.5625H10.0983V27.5852H5.42936V12.5625ZM7.76514 5.08594C8.30065 5.08594 8.82413 5.24477 9.26935 5.54233C9.71458 5.8399 10.0615 6.26283 10.2664 6.75763C10.4712 7.25242 10.5246 7.79685 10.42 8.32203C10.3153 8.84722 10.0572 9.32956 9.67838 9.70804C9.29954 10.0865 8.81695 10.3441 8.29167 10.4483C7.76639 10.5525 7.22201 10.4985 6.72741 10.2932C6.23281 10.0879 5.81021 9.74055 5.51307 9.29504C5.21593 8.84953 5.0576 8.3259 5.05811 7.79039C5.05879 7.07289 5.3443 6.38501 5.85189 5.8779C6.35948 5.37079 7.04764 5.08594 7.76514 5.08594ZM13.0271 12.5625H17.5027V14.625H17.5646C18.1885 13.4442 19.7096 12.199 21.9809 12.199C26.7092 12.1887 27.5858 15.3005 27.5858 19.3352V27.5852H22.9168V20.2763C22.9168 18.536 22.8858 16.2956 20.4908 16.2956C18.0957 16.2956 17.6883 18.1931 17.6883 20.1628V27.5852H13.0271V12.5625Z" fill="white"/>
</g>
<defs>
<clipPath id="clip0_2049_2512">
<rect width="33" height="33" fill="white"/>
</clipPath>
</defs>
</svg>
