<svg width="23" height="20" viewBox="0 0 23 20" fill="none" xmlns="http://www.w3.org/2000/svg">
<path d="M8.88525 0.00113156L5.41445 14.0926L4.58146 10.0665C5.9235 10.0665 7.03416 10.483 7.91343 11.3159C8.7927 12.1489 9.23233 13.2596 9.23233 14.6479C9.23233 16.0362 8.7927 17.17 7.91343 18.0493C7.03416 18.9286 5.94664 19.3682 4.65087 19.3682C3.30883 19.3682 2.19818 18.9286 1.31891 18.0493C0.439637 17.1237 2.32474e-06 15.99 2.32474e-06 14.6479C2.32474e-06 14.1851 0.023141 13.7455 0.0694182 13.329C0.161973 12.9125 0.300805 12.4266 0.485914 11.8713C0.671024 11.2697 0.925549 10.5524 1.24949 9.71937L4.51204 0.00113156H8.88525ZM22.0049 0.00113156L18.5341 14.0926L17.7011 10.0665C19.0431 10.0665 20.1538 10.483 21.0331 11.3159C21.9123 12.1489 22.352 13.2596 22.352 14.6479C22.352 16.0362 21.9123 17.17 21.0331 18.0493C20.1538 18.9286 19.0663 19.3682 17.7705 19.3682C16.4285 19.3682 15.3178 18.9286 14.4385 18.0493C13.5593 17.1237 13.1196 15.99 13.1196 14.6479C13.1196 14.1851 13.1428 13.7455 13.189 13.329C13.2816 12.9125 13.4204 12.4266 13.6055 11.8713C13.7906 11.2697 14.0452 10.5524 14.3691 9.71937L17.6317 0.00113156H22.0049Z" fill="white"/>
</svg>
