<svg width="29" height="15" viewBox="0 0 29 15" fill="none" xmlns="http://www.w3.org/2000/svg">
<path d="M0 14.4V12.51C0 11.65 0.44 10.95 1.32 10.41C2.2 9.87 3.36 9.6 4.8 9.6C5.06 9.6 5.31 9.605 5.55 9.615C5.79 9.625 6.02 9.65 6.24 9.69C5.96 10.11 5.75 10.55 5.61 11.01C5.47 11.47 5.4 11.95 5.4 12.45V14.4H0ZM7.2 14.4V12.45C7.2 11.81 7.375 11.225 7.725 10.695C8.075 10.165 8.57 9.7 9.21 9.3C9.85 8.9 10.615 8.6 11.505 8.4C12.395 8.2 13.36 8.1 14.4 8.1C15.46 8.1 16.435 8.2 17.325 8.4C18.215 8.6 18.98 8.9 19.62 9.3C20.26 9.7 20.75 10.165 21.09 10.695C21.43 11.225 21.6 11.81 21.6 12.45V14.4H7.2ZM23.4 14.4V12.45C23.4 11.93 23.335 11.44 23.205 10.98C23.075 10.52 22.88 10.09 22.62 9.69C22.84 9.65 23.065 9.625 23.295 9.615C23.525 9.605 23.76 9.6 24 9.6C25.44 9.6 26.6 9.865 27.48 10.395C28.36 10.925 28.8 11.63 28.8 12.51V14.4H23.4ZM9.75 12H19.08C18.88 11.6 18.325 11.25 17.415 10.95C16.505 10.65 15.5 10.5 14.4 10.5C13.3 10.5 12.295 10.65 11.385 10.95C10.475 11.25 9.93 11.6 9.75 12ZM4.8 8.4C4.14 8.4 3.575 8.165 3.105 7.695C2.635 7.225 2.4 6.66 2.4 6C2.4 5.32 2.635 4.75 3.105 4.29C3.575 3.83 4.14 3.6 4.8 3.6C5.48 3.6 6.05 3.83 6.51 4.29C6.97 4.75 7.2 5.32 7.2 6C7.2 6.66 6.97 7.225 6.51 7.695C6.05 8.165 5.48 8.4 4.8 8.4ZM24 8.4C23.34 8.4 22.775 8.165 22.305 7.695C21.835 7.225 21.6 6.66 21.6 6C21.6 5.32 21.835 4.75 22.305 4.29C22.775 3.83 23.34 3.6 24 3.6C24.68 3.6 25.25 3.83 25.71 4.29C26.17 4.75 26.4 5.32 26.4 6C26.4 6.66 26.17 7.225 25.71 7.695C25.25 8.165 24.68 8.4 24 8.4ZM14.4 7.2C13.4 7.2 12.55 6.85 11.85 6.15C11.15 5.45 10.8 4.6 10.8 3.6C10.8 2.58 11.15 1.725 11.85 1.035C12.55 0.345 13.4 0 14.4 0C15.42 0 16.275 0.345 16.965 1.035C17.655 1.725 18 2.58 18 3.6C18 4.6 17.655 5.45 16.965 6.15C16.275 6.85 15.42 7.2 14.4 7.2ZM14.4 4.8C14.74 4.8 15.025 4.685 15.255 4.455C15.485 4.225 15.6 3.94 15.6 3.6C15.6 3.26 15.485 2.975 15.255 2.745C15.025 2.515 14.74 2.4 14.4 2.4C14.06 2.4 13.775 2.515 13.545 2.745C13.315 2.975 13.2 3.26 13.2 3.6C13.2 3.94 13.315 4.225 13.545 4.455C13.775 4.685 14.06 4.8 14.4 4.8Z" fill="#FFC00F"/>
</svg>
