<svg width="29" height="20" viewBox="0 0 29 20" fill="none" xmlns="http://www.w3.org/2000/svg">
<path d="M15 9.54C15.58 8.9 16.025 8.17 16.335 7.35C16.645 6.53 16.8 5.68 16.8 4.8C16.8 3.92 16.645 3.07 16.335 2.25C16.025 1.43 15.58 0.7 15 0.06C16.2 0.22 17.2 0.75 18 1.65C18.8 2.55 19.2 3.6 19.2 4.8C19.2 6 18.8 7.05 18 7.95C17.2 8.85 16.2 9.38 15 9.54ZM21.6 19.2V15.6C21.6 14.88 21.44 14.195 21.12 13.545C20.8 12.895 20.38 12.32 19.86 11.82C20.88 12.18 21.825 12.645 22.695 13.215C23.565 13.785 24 14.58 24 15.6V19.2H21.6ZM24 10.8V8.4H21.6V6H24V3.6H26.4V6H28.8V8.4H26.4V10.8H24ZM9.6 9.6C8.28 9.6 7.15 9.13 6.21 8.19C5.27 7.25 4.8 6.12 4.8 4.8C4.8 3.48 5.27 2.35 6.21 1.41C7.15 0.47 8.28 0 9.6 0C10.92 0 12.05 0.47 12.99 1.41C13.93 2.35 14.4 3.48 14.4 4.8C14.4 6.12 13.93 7.25 12.99 8.19C12.05 9.13 10.92 9.6 9.6 9.6ZM0 19.2V15.84C0 15.16 0.175 14.535 0.525 13.965C0.875 13.395 1.34 12.96 1.92 12.66C3.16 12.04 4.42 11.575 5.7 11.265C6.98 10.955 8.28 10.8 9.6 10.8C10.92 10.8 12.22 10.955 13.5 11.265C14.78 11.575 16.04 12.04 17.28 12.66C17.86 12.96 18.325 13.395 18.675 13.965C19.025 14.535 19.2 15.16 19.2 15.84V19.2H0ZM9.6 7.2C10.26 7.2 10.825 6.965 11.295 6.495C11.765 6.025 12 5.46 12 4.8C12 4.14 11.765 3.575 11.295 3.105C10.825 2.635 10.26 2.4 9.6 2.4C8.94 2.4 8.375 2.635 7.905 3.105C7.435 3.575 7.2 4.14 7.2 4.8C7.2 5.46 7.435 6.025 7.905 6.495C8.375 6.965 8.94 7.2 9.6 7.2ZM2.4 16.8H16.8V15.84C16.8 15.62 16.745 15.42 16.635 15.24C16.525 15.06 16.38 14.92 16.2 14.82C15.12 14.28 14.03 13.875 12.93 13.605C11.83 13.335 10.72 13.2 9.6 13.2C8.48 13.2 7.37 13.335 6.27 13.605C5.17 13.875 4.08 14.28 3 14.82C2.82 14.92 2.675 15.06 2.565 15.24C2.455 15.42 2.4 15.62 2.4 15.84V16.8Z" fill="#FFC00F"/>
</svg>
