<svg width="69" height="69" viewBox="0 0 69 69" fill="none" xmlns="http://www.w3.org/2000/svg">
<path d="M17.8333 34.1667L31.8333 45.8333L50.5 22.5M34.1667 66.8333C29.8768 66.8333 25.629 65.9884 21.6657 64.3467C17.7024 62.7051 14.1012 60.2989 11.0678 57.2655C8.03447 54.2321 5.62826 50.631 3.9866 46.6677C2.34495 42.7044 1.5 38.4565 1.5 34.1667C1.5 29.8768 2.34495 25.629 3.9866 21.6657C5.62826 17.7024 8.03447 14.1012 11.0678 11.0678C14.1012 8.03447 17.7024 5.62826 21.6657 3.9866C25.629 2.34495 29.8768 1.5 34.1667 1.5C42.8304 1.5 51.1393 4.94166 57.2655 11.0678C63.3917 17.194 66.8333 25.5029 66.8333 34.1667C66.8333 42.8304 63.3917 51.1393 57.2655 57.2655C51.1393 63.3917 42.8304 66.8333 34.1667 66.8333Z" stroke="#F1B100" stroke-width="3"/>
</svg>
