<svg width="106" height="106" viewBox="0 0 106 106" fill="none" xmlns="http://www.w3.org/2000/svg">
<path d="M53 48.5833C55.4292 48.5833 57.5087 47.7184 59.2385 45.9885C60.9684 44.2587 61.8333 42.1792 61.8333 39.75C61.8333 37.3208 60.9684 35.2413 59.2385 33.5115C57.5087 31.7816 55.4292 30.9167 53 30.9167C50.5708 30.9167 48.4913 31.7816 46.7615 33.5115C45.0316 35.2413 44.1667 37.3208 44.1667 39.75C44.1667 42.1792 45.0316 44.2587 46.7615 45.9885C48.4913 47.7184 50.5708 48.5833 53 48.5833ZM30.9167 92.75V83.9167H48.5833V70.225C44.9764 69.4153 41.7559 67.8878 38.9219 65.6427C36.0878 63.3976 34.0083 60.5819 32.6833 57.1958C27.1625 56.5333 22.5434 54.1226 18.826 49.9635C15.1087 45.8045 13.25 40.9278 13.25 35.3333V30.9167C13.25 28.4875 14.1149 26.408 15.8448 24.6781C17.5747 22.9483 19.6542 22.0833 22.0833 22.0833H30.9167V13.25H75.0833V22.0833H83.9167C86.3458 22.0833 88.4253 22.9483 90.1552 24.6781C91.8851 26.408 92.75 28.4875 92.75 30.9167V35.3333C92.75 40.9278 90.8913 45.8045 87.174 49.9635C83.4566 54.1226 78.8375 56.5333 73.3167 57.1958C71.9917 60.5819 69.9122 63.3976 67.0781 65.6427C64.2441 67.8878 61.0236 69.4153 57.4167 70.225V83.9167H75.0833V92.75H30.9167ZM30.9167 47.7V30.9167H22.0833V35.3333C22.0833 38.1306 22.8931 40.6517 24.5125 42.8969C26.1319 45.142 28.2667 46.7431 30.9167 47.7ZM53 61.8333C56.6806 61.8333 59.809 60.5451 62.3854 57.9688C64.9618 55.3924 66.25 52.2639 66.25 48.5833V22.0833H39.75V48.5833C39.75 52.2639 41.0382 55.3924 43.6146 57.9688C46.191 60.5451 49.3194 61.8333 53 61.8333ZM75.0833 47.7C77.7333 46.7431 79.8681 45.142 81.4875 42.8969C83.1069 40.6517 83.9167 38.1306 83.9167 35.3333V30.9167H75.0833V47.7Z" fill="#F1B100"/>
</svg>
