<svg width="82" height="82" viewBox="0 0 82 82" fill="none" xmlns="http://www.w3.org/2000/svg">
<path d="M14.2917 36.75L0 28.5833V12.25L14.2917 4.08333L28.5833 12.25V28.5833L14.2917 36.75ZM14.2917 27.3583L20.4167 23.8875V16.9458L14.2917 13.475L8.16667 16.9458V23.8875L14.2917 27.3583ZM59.2083 39.9146V30.4208L73.5 38.7917V67.375L49 81.6667L24.5 67.375V38.7917L38.7917 30.4208V39.9146L32.6667 43.4875V62.6792L49 72.1729L65.3333 62.6792V43.4875L59.2083 39.9146ZM44.9167 49V0H81.6667L73.5 12.25L81.6667 24.5H53.0833V49H44.9167Z" fill="#F1B100"/>
</svg>
