<svg width="100" height="100" viewBox="0 0 100 100" fill="none" xmlns="http://www.w3.org/2000/svg">
<path d="M19.4792 42.6034L30.5208 47.2909C31.7708 44.7909 33.1076 42.3256 34.5312 39.8951C35.9549 37.4645 37.4653 35.1381 39.0625 32.9159L30.8333 31.2493L19.4792 42.6034ZM35.5208 51.0409L49.375 64.8951C53.3333 63.0895 57.0486 61.0409 60.5208 58.7493C63.9931 56.4576 66.8056 54.2354 68.9583 52.0826C74.5833 46.4576 78.7153 40.6937 81.3542 34.7909C83.9931 28.8881 85.4167 22.2215 85.625 14.7909C78.1944 14.9993 71.5278 16.4229 65.625 19.0618C59.7222 21.7006 53.9583 25.8326 48.3333 31.4576C46.1806 33.6104 43.9583 36.4229 41.6667 39.8951C39.375 43.3673 37.3264 47.0826 35.5208 51.0409ZM59.375 41.0409C57.9861 39.652 57.2917 37.9333 57.2917 35.8847C57.2917 33.8361 57.9861 32.1173 59.375 30.7284C60.7639 29.3395 62.4826 28.6451 64.5312 28.6451C66.5799 28.6451 68.2986 29.3395 69.6875 30.7284C71.0764 32.1173 71.7708 33.8361 71.7708 35.8847C71.7708 37.9333 71.0764 39.652 69.6875 41.0409C68.2986 42.4298 66.5799 43.1243 64.5312 43.1243C62.4826 43.1243 60.7639 42.4298 59.375 41.0409ZM57.8125 80.9368L69.1667 69.5826L67.5 61.3534C65.2778 62.9506 62.9514 64.4611 60.5208 65.8847C58.0903 67.3083 55.625 68.6451 53.125 69.8951L57.8125 80.9368ZM91.7708 8.64509C92.3958 18.0895 91.2153 26.7006 88.2292 34.4784C85.2431 42.2562 80.3125 49.5826 73.4375 56.4576L73.2292 56.6659L73.0208 56.8743L75.3125 68.3326C75.5208 69.3743 75.4688 70.3812 75.1562 71.3534C74.8438 72.3256 74.3056 73.1937 73.5417 73.9576L55.7292 91.8743L46.875 71.2493L29.1667 53.5409L8.54167 44.6868L26.4583 26.8743C27.2222 26.1104 28.0903 25.5722 29.0625 25.2597C30.0347 24.9472 31.0417 24.8951 32.0833 25.1034L43.5417 27.3951C43.6111 27.3256 43.6806 27.2736 43.75 27.2388C43.8194 27.2041 43.8889 27.152 43.9583 27.0826C50.8333 20.2076 58.1597 15.2597 65.9375 12.2388C73.7153 9.21801 82.3264 8.02009 91.7708 8.64509ZM15.5208 66.1451C17.9514 63.7145 20.9201 62.4819 24.4271 62.4472C27.934 62.4124 30.9028 63.6104 33.3333 66.0409C35.7639 68.4715 36.9618 71.4402 36.9271 74.9472C36.8924 78.4541 35.6597 81.4229 33.2292 83.8534C31.4236 85.659 28.6285 87.152 24.8438 88.3326C21.059 89.5131 15.3819 90.6243 7.8125 91.6659C8.85417 84.0965 9.94792 78.402 11.0938 74.5826C12.2396 70.7631 13.7153 67.9506 15.5208 66.1451ZM19.8958 70.6243C18.9236 71.6659 18.0556 73.2979 17.2917 75.5201C16.5278 77.7423 15.8681 80.5895 15.3125 84.0618C18.7847 83.5062 21.6319 82.8465 23.8542 82.0826C26.0764 81.3187 27.7083 80.4506 28.75 79.4784C30.0694 78.2979 30.7465 76.8222 30.7812 75.0513C30.816 73.2805 30.2083 71.7354 28.9583 70.4159C27.6389 69.1659 26.0938 68.5583 24.3229 68.593C22.5521 68.6277 21.0764 69.3048 19.8958 70.6243Z" fill="#FFC00F"/>
</svg>
